<?xml version="1.0" encoding="iso-8859-1"?>
<!-- Generator: Adobe Illustrator 19.0.0, SVG Export Plug-In . SVG Version: 6.00 Build 0)  -->
<svg version="1.1" id="Layer_1" xmlns="http://www.w3.org/2000/svg" xmlns:xlink="http://www.w3.org/1999/xlink" x="0px" y="0px"
	 viewBox="0 0 512 512" style="enable-background:new 0 0 512 512;" xml:space="preserve">
<g transform="translate(1 1)">
	<g>
		<polygon style="fill:#FDCC00;" points="33.133,502.467 84.333,502.467 84.333,383 33.133,383 		"/>
		<polygon style="fill:#FDCC00;" points="425.667,502.467 476.867,502.467 476.867,383 425.667,383 		"/>
	</g>
	<g>
		<polygon style="fill:#FFE100;" points="331.8,280.6 502.467,280.6 502.467,7.533 331.8,7.533 		"/>
		<polygon style="fill:#FFE100;" points="7.533,383 502.467,383 502.467,280.6 7.533,280.6 		"/>
	</g>
	<g>
		<polygon style="fill:#FFA800;" points="459.8,502.467 476.867,502.467 476.867,383 459.8,383 		"/>
		<polygon style="fill:#FFA800;" points="485.4,280.6 502.467,280.6 502.467,7.533 485.4,7.533 		"/>
		<polygon style="fill:#FFA800;" points="485.4,383 502.467,383 502.467,280.6 485.4,280.6 		"/>
	</g>
	<g>
		<polygon style="fill:#FFE100;" points="7.533,280.6 331.8,280.6 331.8,7.533 7.533,7.533 		"/>
		<polygon style="fill:#FFE100;" points="7.533,280.6 58.733,280.6 58.733,7.533 7.533,7.533 		"/>
	</g>
	<polygon style="fill:#FDCC00;" points="58.733,186.733 127,186.733 127,101.4 58.733,101.4 	"/>
	<g>
		<polygon style="fill:#FFFFFF;" points="33.133,502.467 50.2,502.467 50.2,383 33.133,383 		"/>
		<polygon style="fill:#FFFFFF;" points="7.533,280.6 24.6,280.6 24.6,7.533 7.533,7.533 		"/>
		<polygon style="fill:#FFFFFF;" points="7.533,383 24.6,383 24.6,280.6 7.533,280.6 		"/>
	</g>
	<polygon style="fill:#FDCC00;" points="127,203.8 195.267,203.8 195.267,84.333 127,84.333 	"/>
	<polygon style="fill:#63D3FD;" points="280.6,169.667 331.8,169.667 331.8,118.467 280.6,118.467 	"/>
	<polygon style="fill:#00DA6C;" points="365.933,109.933 468.333,109.933 468.333,41.667 365.933,41.667 	"/>
	<polygon style="fill:#00AD55;" points="451.267,109.933 468.333,109.933 468.333,41.667 451.267,41.667 	"/>
	<g>
		<polygon style="fill:#00DA6C;" points="365.933,237.933 400.067,237.933 400.067,203.8 365.933,203.8 		"/>
		<polygon style="fill:#00DA6C;" points="434.2,237.933 468.333,237.933 468.333,203.8 434.2,203.8 		"/>
		<path style="fill:#00DA6C;" d="M101.4,331.8c0,9.387-7.68,17.067-17.067,17.067s-17.067-7.68-17.067-17.067
			s7.68-17.067,17.067-17.067S101.4,322.413,101.4,331.8"/>
		<path style="fill:#00DA6C;" d="M169.667,331.8c0,9.387-7.68,17.067-17.067,17.067s-17.067-7.68-17.067-17.067
			s7.68-17.067,17.067-17.067S169.667,322.413,169.667,331.8"/>
		<path style="fill:#00DA6C;" d="M237.933,331.8c0,9.387-7.68,17.067-17.067,17.067c-9.387,0-17.067-7.68-17.067-17.067
			s7.68-17.067,17.067-17.067C230.253,314.733,237.933,322.413,237.933,331.8"/>
		<path style="fill:#00DA6C;" d="M306.2,331.8c0,9.387-7.68,17.067-17.067,17.067c-9.387,0-17.067-7.68-17.067-17.067
			s7.68-17.067,17.067-17.067C298.52,314.733,306.2,322.413,306.2,331.8"/>
		<path style="fill:#00DA6C;" d="M374.467,331.8c0,9.387-7.68,17.067-17.067,17.067s-17.067-7.68-17.067-17.067
			s7.68-17.067,17.067-17.067S374.467,322.413,374.467,331.8"/>
		<path style="fill:#00DA6C;" d="M442.733,331.8c0,9.387-7.68,17.067-17.067,17.067S408.6,341.187,408.6,331.8
			s7.68-17.067,17.067-17.067S442.733,322.413,442.733,331.8"/>
	</g>
	<path d="M84.333,511h-51.2c-5.12,0-8.533-3.413-8.533-8.533V383c0-5.12,3.413-8.533,8.533-8.533h51.2
		c5.12,0,8.533,3.413,8.533,8.533v119.467C92.867,507.587,89.453,511,84.333,511z M41.667,493.933H75.8v-102.4H41.667V493.933z"/>
	<path d="M476.867,511h-51.2c-5.12,0-8.533-3.413-8.533-8.533V383c0-5.12,3.413-8.533,8.533-8.533h51.2
		c5.12,0,8.533,3.413,8.533,8.533v119.467C485.4,507.587,481.987,511,476.867,511z M434.2,493.933h34.133v-102.4H434.2V493.933z"/>
	<path d="M502.467,391.533H7.533C2.413,391.533-1,388.12-1,383V280.6c0-5.12,3.413-8.533,8.533-8.533h494.933
		c5.12,0,8.533,3.413,8.533,8.533V383C511,388.12,507.587,391.533,502.467,391.533z M16.067,374.467h477.867v-85.333H16.067V374.467
		z"/>
	<path d="M502.467,511H7.533C2.413,511-1,507.587-1,502.467c0-5.12,3.413-8.533,8.533-8.533h494.933c5.12,0,8.533,3.413,8.533,8.533
		C511,507.587,507.587,511,502.467,511z"/>
	<path d="M502.467,289.133H331.8c-5.12,0-8.533-3.413-8.533-8.533V7.533c0-5.12,3.413-8.533,8.533-8.533h170.667
		C507.587-1,511,2.413,511,7.533V280.6C511,285.72,507.587,289.133,502.467,289.133z M340.333,272.067h153.6v-256h-153.6V272.067z"
		/>
	<path d="M468.333,118.467h-102.4c-5.12,0-8.533-3.413-8.533-8.533V41.667c0-5.12,3.413-8.533,8.533-8.533h102.4
		c5.12,0,8.533,3.413,8.533,8.533v68.267C476.867,115.053,473.453,118.467,468.333,118.467z M374.467,101.4H459.8V50.2h-85.333
		V101.4z"/>
	<path d="M365.933,178.2c-5.12,0-8.533-3.413-8.533-8.533v-25.6c0-5.12,3.413-8.533,8.533-8.533s8.533,3.413,8.533,8.533v25.6
		C374.467,174.787,371.053,178.2,365.933,178.2z"/>
	<path d="M468.333,178.2c-5.12,0-8.533-3.413-8.533-8.533v-25.6c0-5.12,3.413-8.533,8.533-8.533c5.12,0,8.533,3.413,8.533,8.533
		v25.6C476.867,174.787,473.453,178.2,468.333,178.2z"/>
	<path d="M434.2,178.2c-5.12,0-8.533-3.413-8.533-8.533v-25.6c0-5.12,3.413-8.533,8.533-8.533c5.12,0,8.533,3.413,8.533,8.533v25.6
		C442.733,174.787,439.32,178.2,434.2,178.2z"/>
	<path d="M400.067,178.2c-5.12,0-8.533-3.413-8.533-8.533v-25.6c0-5.12,3.413-8.533,8.533-8.533s8.533,3.413,8.533,8.533v25.6
		C408.6,174.787,405.187,178.2,400.067,178.2z"/>
	<path d="M400.067,246.467h-34.133c-5.12,0-8.533-3.413-8.533-8.533V203.8c0-5.12,3.413-8.533,8.533-8.533h34.133
		c5.12,0,8.533,3.413,8.533,8.533v34.133C408.6,243.053,405.187,246.467,400.067,246.467z M374.467,229.4h17.067v-17.067h-17.067
		V229.4z"/>
	<path d="M468.333,246.467H434.2c-5.12,0-8.533-3.413-8.533-8.533V203.8c0-5.12,3.413-8.533,8.533-8.533h34.133
		c5.12,0,8.533,3.413,8.533,8.533v34.133C476.867,243.053,473.453,246.467,468.333,246.467z M442.733,229.4H459.8v-17.067h-17.067
		V229.4z"/>
	<path d="M84.333,357.4c-14.507,0-25.6-11.093-25.6-25.6s11.093-25.6,25.6-25.6s25.6,11.093,25.6,25.6S98.84,357.4,84.333,357.4z
		 M84.333,323.267c-5.12,0-8.533,3.413-8.533,8.533s3.413,8.533,8.533,8.533s8.533-3.413,8.533-8.533S89.453,323.267,84.333,323.267
		z"/>
	<path d="M152.6,357.4c-14.507,0-25.6-11.093-25.6-25.6s11.093-25.6,25.6-25.6c14.507,0,25.6,11.093,25.6,25.6
		S167.107,357.4,152.6,357.4z M152.6,323.267c-5.12,0-8.533,3.413-8.533,8.533s3.413,8.533,8.533,8.533
		c5.12,0,8.533-3.413,8.533-8.533S157.72,323.267,152.6,323.267z"/>
	<path d="M220.867,357.4c-14.507,0-25.6-11.093-25.6-25.6s11.093-25.6,25.6-25.6c14.507,0,25.6,11.093,25.6,25.6
		S235.373,357.4,220.867,357.4z M220.867,323.267c-5.12,0-8.533,3.413-8.533,8.533s3.413,8.533,8.533,8.533
		c5.12,0,8.533-3.413,8.533-8.533S225.987,323.267,220.867,323.267z"/>
	<path d="M289.133,357.4c-14.507,0-25.6-11.093-25.6-25.6s11.093-25.6,25.6-25.6c14.507,0,25.6,11.093,25.6,25.6
		S303.64,357.4,289.133,357.4z M289.133,323.267c-5.12,0-8.533,3.413-8.533,8.533s3.413,8.533,8.533,8.533
		c5.12,0,8.533-3.413,8.533-8.533S294.253,323.267,289.133,323.267z"/>
	<path d="M357.4,357.4c-14.507,0-25.6-11.093-25.6-25.6s11.093-25.6,25.6-25.6s25.6,11.093,25.6,25.6S371.907,357.4,357.4,357.4z
		 M357.4,323.267c-5.12,0-8.533,3.413-8.533,8.533s3.413,8.533,8.533,8.533s8.533-3.413,8.533-8.533S362.52,323.267,357.4,323.267z"
		/>
	<path d="M425.667,357.4c-14.507,0-25.6-11.093-25.6-25.6s11.093-25.6,25.6-25.6s25.6,11.093,25.6,25.6S440.173,357.4,425.667,357.4
		z M425.667,323.267c-5.12,0-8.533,3.413-8.533,8.533s3.413,8.533,8.533,8.533s8.533-3.413,8.533-8.533
		S430.787,323.267,425.667,323.267z"/>
	<path d="M331.8,289.133H7.533C2.413,289.133-1,285.72-1,280.6V7.533C-1,2.413,2.413-1,7.533-1H331.8
		c5.12,0,8.533,3.413,8.533,8.533V280.6C340.333,285.72,336.92,289.133,331.8,289.133z M16.067,272.067h307.2v-256h-307.2V272.067z"
		/>
	<path d="M58.733,289.133h-51.2C2.413,289.133-1,285.72-1,280.6V7.533C-1,2.413,2.413-1,7.533-1h51.2
		c5.12,0,8.533,3.413,8.533,8.533V280.6C67.267,285.72,63.853,289.133,58.733,289.133z M16.067,272.067H50.2v-256H16.067V272.067z"
		/>
	<path d="M127,195.267H58.733c-5.12,0-8.533-3.413-8.533-8.533V101.4c0-5.12,3.413-8.533,8.533-8.533H127
		c5.12,0,8.533,3.413,8.533,8.533v85.333C135.533,191.853,132.12,195.267,127,195.267z M67.267,178.2h51.2v-68.267h-51.2V178.2z"/>
	<path d="M331.8,178.2h-51.2c-5.12,0-8.533-3.413-8.533-8.533v-51.2c0-5.12,3.413-8.533,8.533-8.533h51.2
		c5.12,0,8.533,3.413,8.533,8.533v51.2C340.333,174.787,336.92,178.2,331.8,178.2z M289.133,161.133h34.133V127h-34.133V161.133z"/>
	<path d="M195.267,212.333H127c-5.12,0-8.533-3.413-8.533-8.533V84.333c0-5.12,3.413-8.533,8.533-8.533h68.267
		c5.12,0,8.533,3.413,8.533,8.533V203.8C203.8,208.92,200.387,212.333,195.267,212.333z M135.533,195.267h51.2v-102.4h-51.2V195.267
		z"/>
</g>
<g>
</g>
<g>
</g>
<g>
</g>
<g>
</g>
<g>
</g>
<g>
</g>
<g>
</g>
<g>
</g>
<g>
</g>
<g>
</g>
<g>
</g>
<g>
</g>
<g>
</g>
<g>
</g>
<g>
</g>
</svg>
